<svg width="22" height="22" viewBox="0 0 22 22" fill="none" xmlns="http://www.w3.org/2000/svg">
<mask id="mask0_33_896" style="mask-type:luminance" maskUnits="userSpaceOnUse" x="0" y="0" width="22" height="22">
<path d="M22 0H0V22H22V0Z" fill="white"/>
</mask>
<g mask="url(#mask0_33_896)">
<path d="M21.56 11.25C21.56 10.47 21.49 9.72006 21.36 9H11V13.255H16.92C16.665 14.63 15.8901 15.795 14.725 16.575V19.335H18.28C20.36 17.4201 21.56 14.6 21.56 11.25Z" fill="#4285F4"/>
<path d="M11 22C13.97 22 16.4599 21.015 18.2799 19.3351L14.7249 16.575C13.74 17.235 12.4799 17.625 11 17.625C8.1349 17.625 5.70995 15.69 4.84491 13.09H1.16992V15.94C2.97997 19.535 6.69995 22 11 22Z" fill="#34A853"/>
<path d="M4.84495 13.09C4.62495 12.43 4.49999 11.725 4.49999 11C4.49999 10.275 4.62495 9.56999 4.84495 8.90999V6.06H1.16996C0.425039 7.545 0 9.22503 0 11C0 12.7749 0.425039 14.455 1.16996 15.94L4.84495 13.09Z" fill="#FBBC04"/>
<path d="M11 4.37503C12.6149 4.37503 14.0649 4.92998 15.2049 6.01997L18.36 2.86495C16.455 1.08999 13.9649 0 11 0C6.69995 0 2.97997 2.46499 1.16992 6.06001L4.84491 8.91C5.70995 6.31004 8.1349 4.37503 11 4.37503Z" fill="#E94235"/>
</g>
</svg>
